<?xml version="1.0" encoding="UTF-8"?>
<svg width="677px" height="635px" viewBox="0 0 677 635" version="1.1" xmlns="http://www.w3.org/2000/svg" xmlns:xlink="http://www.w3.org/1999/xlink">
    <!-- Generator: Sketch 50.2 (55047) - http://www.bohemiancoding.com/sketch -->
    <title>layer-group-solid</title>
    <desc>Created with Sketch.</desc>
    <defs></defs>
    <g id="Page-1" stroke="none" stroke-width="1" fill="none" fill-rule="evenodd">
        <g id="layer-group-solid" transform="translate(-1.000000, -1.000000)" fill="#000000" fill-rule="nonzero">
            <path d="M13.41,149.02 L411.287756,395.960809 C418.087756,399.050809 425.777756,399.050809 432.577756,395.960809 L665.517756,290.290809 C682.067756,282.780809 682.067756,257.770809 665.517756,250.260809 L267.65,3.31 C260.889682,0.220046194 253.120318,0.220046194 246.36,3.31 L13.41,108.98 C-3.14,116.49 -3.14,141.51 13.41,149.02 Z M665.471153,367.33329 L607.381153,341.00329 L445.741153,412.950566 C438.181153,416.380566 430.151153,421.133576 421.881153,421.133576 C413.611153,421.133576 405.591153,416.380566 398.021153,412.950566 L78.51,212.992535 L20.41,239.322535 C3.86,246.822535 3.86,271.822535 20.41,279.322535 L411.231153,512.92329 C418.031153,516.00329 425.721153,516.00329 432.521153,512.92329 L665.471153,407.33329 C682.021153,399.83329 682.021153,374.83329 665.471153,367.33329 Z M665.471153,487.33329 L607.381153,461.00329 L445.741153,532.950566 C438.181153,536.380566 430.151153,541.133576 421.881153,541.133576 C413.611153,541.133576 405.591153,536.380566 398.021153,532.950566 L78.51,332.992535 L20.41,359.322535 C3.86,366.822535 3.86,391.822535 20.41,399.322535 L411.231153,632.92329 C418.031153,636.00329 425.721153,636.00329 432.521153,632.92329 L665.471153,527.33329 C682.021153,519.83329 682.021153,494.83329 665.471153,487.33329 Z" id="Shape"></path>
        </g>
    </g>
</svg>